Coordinates
version=1
nRows=15
nColumns=34
inDegrees=yes

Units are S.I. units (second, meters, Newtons, ...)
If the header above contains a line with 'inDegrees', this indicates whether rotational values are in degrees (yes) or radians (no).

endheader
time	pelvis_tilt	pelvis_list	pelvis_rotation	pelvis_tx	pelvis_ty	pelvis_tz	hip_flexion_r	hip_adduction_r	hip_rotation_r	knee_angle_r	ankle_angle_r	subtalar_angle_r	mtp_angle_r	hip_flexion_l	hip_adduction_l	hip_rotation_l	knee_angle_l	ankle_angle_l	subtalar_angle_l	mtp_angle_l	lumbar_extension	lumbar_bending	lumbar_rotation	arm_flex_r	arm_add_r	arm_rot_r	elbow_flex_r	pro_sup_r	arm_flex_l	arm_add_l	arm_rot_l	elbow_flex_l	pro_sup_l
      0.00000000	     -0.84681353	     -0.33341710	    -13.20158667	      0.85387048	      0.96495334	     -0.36908961	      6.85200389	      7.71496196	    -21.79034183	     10.51027165	     25.43172229	     -6.20827492	      0.00000000	     19.17708188	     -6.60843274	     -1.54609818	     39.75135434	     11.29142777	    -14.91572637	      0.00000000	      4.87008640	      4.97989185	      0.01666834	     35.07380888	     18.93824866	     69.69496917	    110.85925803	    109.21626748	     15.66326684	     10.09010071	     53.48258432	    119.56603699	    118.76047967
      0.01666670	      1.97099684	     -0.79218060	    -11.71025687	      0.85206660	      0.97714383	     -0.37241762	      3.26368520	      7.65047196	    -26.15639479	      8.72697017	     17.69339832	     -8.04107898	      0.00000000	     17.58571334	     -4.95898081	     -1.35188240	     42.65168027	     12.77824280	    -16.89812742	      0.00000000	      0.01750377	      4.04477413	      0.96270949	     35.72787781	     17.39553065	     70.67295087	    114.23628996	    109.18967723	     18.67223339	      9.97404596	     59.53183433	    120.55718144	    118.79806618
      0.03333330	      1.79608033	     -0.48342038	    -11.18849742	      0.85098246	      0.97935770	     -0.37311058	      3.03543572	      7.57736408	    -29.23761428	      7.77683350	     13.77995094	     -8.65741320	      0.00000000	     18.57402877	     -3.90008378	     -1.04585643	     44.62264654	     14.95443100	    -18.40614999	      0.00000000	     -0.09203999	      3.18955135	      2.23242841	     34.97221985	     16.29861168	     70.98483963	    115.37851490	    109.10727703	     19.12914035	     10.62676270	     61.89705176	    121.31563397	    118.41553112
      0.05000000	      2.54896188	     -1.35618455	    -10.40192483	      0.84829692	      0.97584386	     -0.37131063	      2.12043537	      8.51998859	    -28.96729040	      7.63336966	     11.25540056	    -10.85853040	      0.00000000	     18.72338486	     -4.32744429	      0.02792328	     47.54979568	     16.24697440	    -21.24051121	      0.00000000	     -1.69009400	      3.53645377	      3.29953213	     34.67461964	     15.65487536	     70.42368648	    116.29781737	    108.52121114	     20.76819704	     11.60324857	     63.77553827	    120.71381256	    117.16394200
      0.06666670	      3.40425573	     -2.25047575	     -9.68376225	      0.84783430	      0.97884759	     -0.37229611	      0.75301313	      9.63586673	    -28.28197622	      6.55900984	      8.46164738	    -13.58198908	      0.00000000	     18.29856889	     -4.79046492	      0.68074642	     49.68644480	     16.75710098	    -22.41659397	      0.00000000	     -3.05289898	      4.20947266	      3.50602904	     34.40029291	     15.19070558	     70.04715412	    116.34621772	    107.34332219	     21.37281371	     12.17690940	     64.57044600	    119.89066255	    115.20219306
      0.08333330	      4.14243860	     -2.66424312	     -9.14555015	      0.84800255	      0.97895846	     -0.37199790	     -0.46485817	     10.23556423	    -26.49376590	      5.55887451	      6.05106681	    -16.19808526	      0.00000000	     18.59207920	     -4.88545934	      1.63469662	     52.72666732	     16.19261491	    -23.41257976	      0.00000000	     -3.89882600	      4.48564825	      3.63728899	     34.27595603	     14.99299949	     69.47389138	    116.17227436	    104.88894945	     21.76432414	     12.63985410	     65.10747269	    119.84142251	    111.90421878
      0.10000000	      4.64134650	     -2.80354555	     -8.63908888	      0.84932020	      0.98235291	     -0.37238861	     -1.32394768	     10.53229260	    -26.79443916	      4.65642466	      5.47589246	    -16.52549878	      0.00000000	     19.37505432	     -4.72306375	      2.71893259	     55.43071149	     15.55111256	    -22.86170956	      0.00000000	     -4.54041915	      4.60009440	      3.49011931	     34.07735187	     15.07892165	     69.18211624	    116.00004262	    104.66607969	     21.65163939	     13.06340706	     65.17115801	    119.68544284	    111.64038357
      0.11666670	      4.99168856	     -2.67603240	     -8.05966183	      0.84761385	      0.98611249	     -0.37301041	     -1.86877588	     10.62444853	    -25.77145129	      3.62587522	     -0.24954026	    -20.56080282	      0.00000000	     19.83870173	     -4.22858583	      3.43804071	     57.06815895	     15.16433357	    -22.34201504	      0.00000000	     -4.90456831	      4.30250448	      3.15912514	     34.01968082	     15.01438168	     68.87771120	    115.61477566	    100.08716314	     21.90526851	     12.95030356	     65.77271581	    118.97649580	    105.60058270
      0.13333330	      5.49265149	     -2.67058296	     -7.68461545	      0.84475687	      0.98477668	     -0.37287014	     -2.57704858	     10.73858446	    -25.86597812	      2.96723207	     -0.95563826	    -20.49078441	      0.00000000	     20.35361957	     -4.10483901	      3.87333294	     59.10273659	     15.47510723	    -23.18582521	      0.00000000	     -5.71325052	      4.16789490	      2.79354379	     34.13278461	     15.09464104	     68.39844593	    115.73423959	     99.80984107	     22.30137624	     12.97906304	     65.30456118	    118.68795524	    105.19658158
      0.15000000	      5.75024890	     -2.48334926	     -7.36438526	      0.84409811	      0.98537592	     -0.37275931	     -2.94319328	     10.69216607	    -25.65691340	      2.54733307	     -1.17342652	    -20.64411671	      0.00000000	     21.09044937	     -3.87962245	      4.07504141	     60.91429794	     15.66219612	    -23.82686141	      0.00000000	     -6.26070995	      3.83570757	      2.66423503	     34.42351283	     15.33976619	     68.16308638	    115.81599403	     99.65278273	     22.65777656	     13.11963712	     65.23022340	    118.70480032	    104.95365731
      0.16666670	      5.99810946	     -2.21249438	     -7.15896216	      0.84431854	      0.98655879	     -0.37271566	     -3.21156652	     10.43509303	    -26.13125426	      2.34677707	     -1.84725767	    -21.15812018	      0.00000000	     21.46852743	     -3.65858681	      3.99967235	     62.17996603	     16.66156086	    -25.45672863	      0.00000000	     -6.67299655	      3.40277134	      2.48287246	     34.54738372	     15.39971288	     68.08263105	    115.87298132	     99.48529805	     22.92892758	     12.97839384	     65.29068594	    118.64160248	    104.65943527
      0.18333330	      6.26596775	     -1.75425000	     -6.82053717	      0.84591138	      0.98899426	     -0.37284350	     -3.64510753	     10.05852696	    -26.46591463	      1.86872122	     -2.65863639	    -21.57466401	      0.00000000	     21.78756289	     -3.30964402	      3.68731974	     63.16406208	     17.41525781	    -27.22567654	      0.00000000	     -6.90360989	      2.76309470	      2.29058615	     34.34891140	     15.38561944	     68.24927081	    115.89127966	     99.31963617	     22.87215885	     12.78559595	     65.47049349	    118.51763268	    104.32690158
      0.20000000	      7.27064598	     -1.46224795	     -6.39408462	      0.85003068	      0.99174726	     -0.37387061	     -5.10218085	      9.62331681	    -25.76959009	      1.62708594	     -4.97999959	    -22.71995306	      0.00000000	     20.72768962	     -2.48660108	      4.09985686	     63.84812345	     16.98565196	    -29.29875273	      0.00000000	     -7.80084722	      2.47351271	      2.12481747	     34.26825973	     15.26288422	     68.24579484	    116.35085365	     98.26625302	     23.01039683	     12.72971287	     65.66130410	    117.88980336	    102.27924331
      0.21666670	      7.29439133	     -1.11713511	     -6.26982326	      0.84595112	      0.99252311	     -0.37361317	     -5.09870164	      9.29218319	    -25.51927875	      1.65792652	     -4.77777233	    -23.06641692	      0.00000000	     20.88970562	     -2.16733425	      3.20713147	     63.63496668	     17.88158814	    -30.95702857	      0.00000000	     -7.98245663	      2.16006643	      2.17192247	     33.90351167	     15.28533329	     68.62713775	    116.27388424	     98.00298865	     22.94250133	     12.64452130	     65.83981786	    118.08247990	    101.72786363
      0.23333330	      7.43114973	     -1.00588815	     -6.01389899	      0.84588062	      0.99485415	     -0.37363241	     -5.16575974	      9.21680982	    -25.61875849	      1.56018217	     -4.84155803	    -23.10562771	      0.00000000	     21.03426911	     -1.95149468	      2.72006923	     63.78579342	     17.99708558	    -31.20060473	      0.00000000	     -8.02534613	      2.24158462	      2.15213558	     33.79169754	     15.22725476	     68.68890889	    116.30101619	     97.98260251	     22.95751197	     12.60065008	     65.81935392	    118.06391016	    101.68316989
